# xmcd
#
# Track frame offsets: 
#        150
#        19028
#        35468
#        54875
#        70876
#        90083
#        107117
#        128167
#        147280
#        173279
#
# Disc length: 2583 seconds
#
# Revision: 0
# Processed by: cddbd v1.5.2PL0 Copyright (c) Steve Scherf et al.
# Submitted via: ExactAudioCopy v0.99pb5
#
DISCID=720a150a
DTITLE=Finch Brian - Never Look Back
DYEAR=2003
DGENRE=Country
TTITLE0=19th Century Boy
TTITLE1=Beautiful Feeling
TTITLE2=Firelight
TTITLE3=Long riders of Nam
TTITLE4=Never look back
TTITLE5=Everything I do
TTITLE6=Oh Brother
TTITLE7=Woman in you
TTITLE8=Ghost riders in the sky
TTITLE9=Thunder
EXTD=
EXTT0=
EXTT1=
EXTT2=
EXTT3=
EXTT4=
EXTT5=
EXTT6=
EXTT7=
EXTT8=
EXTT9=
PLAYORDER=
